<?xml version="1.0" encoding="UTF-8" standalone="no"?>
<svg width="18px" height="19px" viewBox="0 0 18 19" version="1.1" xmlns="http://www.w3.org/2000/svg" xmlns:xlink="http://www.w3.org/1999/xlink">
    <!-- Generator: sketchtool 41.2 (35397) - http://www.bohemiancoding.com/sketch -->
    <title>41402F12-4327-4C94-AD31-BAE39F23EE32</title>
    <desc>Created with sketchtool.</desc>
    <defs></defs>
    <g id="Page-1" stroke="none" stroke-width="1" fill="none" fill-rule="evenodd">
        <g id="settings-1" transform="translate(-14.000000, -323.000000)" stroke-width="0.6" stroke="#FFFFFF" fill="#AAAFB8">
            <g id="noun_639959_cc-(1)" transform="translate(15.000000, 324.000000)">
                <g id="l1">
                    <path d="M15.9665631,8.66351628 C15.957412,8.5020624 15.9486128,8.34977403 15.9355901,8.19748566 C15.7729814,6.26849961 14.9968944,4.58839225 13.6298551,3.20369612 C13.4134254,2.97971827 13.092676,2.89103626 12.7921739,2.97209089 C12.4872502,3.04673872 12.245543,3.27914183 12.1586335,3.58124438 C12.0548033,3.93728895 12.1378675,4.22318217 12.4356315,4.53586686 C13.7928157,5.96216027 14.3654658,7.67046919 14.1373913,9.61214593 C13.9321433,11.3254977 13.0170825,12.873462 11.6159006,13.8776304 C10.1953122,14.8950027 8.41310102,15.2672793 6.70490683,14.9034618 C3.50095238,14.2188692 1.38950311,11.1431376 1.89915114,7.9034845 C2.10293996,6.60762326 2.68650104,5.45100717 3.63329193,4.4657155 C3.80450026,4.2933377 3.89914782,4.05914294 3.89585921,3.81602229 C3.8882161,3.5765254 3.7845615,3.35021129 3.60830228,3.18818527 C3.4474875,3.03304219 3.23323842,2.94581954 3.00995859,2.94459438 C2.75541172,2.94721574 2.51331617,3.05530881 2.34122153,3.24317829 C0.434968944,5.25253876 -0.290786749,7.6288719 0.183664596,10.3062566 C0.553581781,12.3935238 1.7252795,14.2107612 3.4826501,15.4227229 C5.24987578,16.6417349 7.37610766,17.0919021 9.46925466,16.6917926 C13.2704969,15.9631351 15.9454451,12.7481583 15.97853,8.86974012 C15.9745411,8.80088133 15.9705521,8.73214005 15.9665631,8.66351628 Z" id="Shape"></path>
                    <path d="M7.11776398,4.44174419 L7.13043478,4.44174419 L7.13043478,5.04455233 C7.13043478,5.45735252 7.12409938,5.87050523 7.12374741,6.28365795 C7.12374741,7.24920853 7.11811594,8.25142112 7.12374741,9.23213004 C7.12656315,9.69040523 7.52745342,10.0824068 8.0036646,10.0824068 L8.0036646,10.0824068 C8.48304348,10.0824068 8.88886128,9.69216783 8.89026915,9.23636027 C8.89766046,6.61678876 8.89484472,3.95103721 8.89238095,1.3751781 L8.89238095,0.860499806 C8.89238095,0.653218411 8.81318841,0.468498256 8.65128364,0.296468798 C8.40411501,0.0334415736 8.02229899,-0.0530272579 7.68619048,0.0779067829 C7.34302808,0.205382271 7.11633373,0.534471187 7.11917184,0.901039535 C7.11600414,1.88210097 7.11670807,2.88713372 7.11741201,3.85197926 C7.11741201,4.04692248 7.11776398,4.23023256 7.11776398,4.44174419 Z" id="Shape"></path>
                </g>
            </g>
        </g>
    </g>
</svg>